<svg xmlns="http://www.w3.org/2000/svg" viewBox="0 0 345.52 44.95"><defs><style>.cls-1{fill:#fff;}.cls-2{fill:#907147;}</style></defs><g id="Layer_2" data-name="Layer 2"><g id="Layer_1-2" data-name="Layer 1"><path class="cls-1" d="M116.48,25.58c0-7.16-5-12.78-12.94-12.78s-12.9,5.62-12.9,12.78,5,12.74,12.9,12.74,12.94-5.57,12.94-12.74m-32.84,0c0-10.64,8-19.36,19.9-19.36s19.95,8.72,19.95,19.36S115.47,45,103.54,45s-19.9-8.72-19.9-19.37"/><polygon class="cls-1" points="162.81 6.86 162.81 44.31 156.66 44.31 135.53 18.26 135.53 44.31 128.58 44.31 128.58 6.86 134.73 6.86 155.86 32.91 155.86 6.86 162.81 6.86"/><polygon class="cls-1" points="200.69 13.39 187.05 13.39 187.05 44.31 180.09 44.31 180.09 13.39 166.45 13.39 166.45 6.86 187.05 6.86 200.69 6.86 200.69 13.39"/><path class="cls-1" d="M245.26,25.58c0-7.16-5.19-12.19-12.57-12.19h-8.3V37.78h8.3c7.38,0,12.57-5.08,12.57-12.2m7,0c0,10.65-8.4,18.73-19.52,18.73H217.44V6.86h15.25c11.12,0,19.52,8.08,19.52,18.72"/><path class="cls-1" d="M254.51,21.79c2.89-1.82,4.55-4,4.71-6.8-2.89-.05-4.76-2-4.76-4.39A4.4,4.4,0,0,1,259,6.22c3.38,0,5.35,3,5.35,6.58,0,4.28-3,9-8.13,11.29Z"/><path class="cls-1" d="M298.65,25.58c0-7.16-5-12.78-12.94-12.78s-12.9,5.62-12.9,12.78,5,12.74,12.9,12.74,12.94-5.57,12.94-12.74m-32.84,0c0-10.64,8-19.36,19.9-19.36s20,8.72,20,19.36-8,19.37-20,19.37-19.9-8.72-19.9-19.37"/><path class="cls-1" d="M317.7,24.51h12.41c3.58,0,6.31-2.14,6.31-5.61s-2.73-5.67-6.31-5.67H317.7Zm27.82,19.42v.38h-7.39l-9.2-13.64H317.7V44.31h-7V6.86h20c7.11,0,12.68,4.87,12.68,11.93a11.45,11.45,0,0,1-7.49,11Z"/><polygon class="cls-2" points="62.1 6.81 56.48 6.77 47.61 20.27 34.74 0.04 29.11 0 0 44.31 8.02 44.31 31.87 8.01 43.58 26.41 31.81 44.31 39.83 44.31 59.23 14.78 78.03 44.31 85.97 44.31 62.1 6.81"/></g></g></svg>